<?xml version="1.0" encoding="utf-8"?>
<!-- Generator: Adobe Illustrator 22.0.1, SVG Export Plug-In . SVG Version: 6.00 Build 0)  -->
<svg version="1.1" id="Layer_1" xmlns="http://www.w3.org/2000/svg" xmlns:xlink="http://www.w3.org/1999/xlink" x="0px" y="0px"
	 viewBox="0 0 165 275.9" style="enable-background:new 0 0 165 275.9;" xml:space="preserve">
<style type="text/css">
	.st0{fill:#2A367E;}
	.st1{fill:#ED1C24;}
	.st2{fill:#FFFFFF;}
</style>
<path class="st0" d="M151.7,138.8l-7.3-4.6l-3.6,3.8v-10.7l-7.3-4.6l-4.2,4.5V117l-5.3-4.6l-3.3,3.8v-10l-5.3-4.6l-8.1,8.8v31.8
	l-24.2,17v-14.7h-1.6v14.6l-24.1-17v-31.8l-8.1-8.8l-5.3,4.6v10l-3.3-3.8l-5.3,4.6v10.2l-4.2-4.5l-7.3,4.6v10.7l-3.6-3.8l-7.3,4.6
	l0.1,68.8l0,0l59.7,28.2l0,0h20.5l58.7-28.2L151.7,138.8z M142.9,139.1l1,0.7l-0.1,63l-61,27.8v-14.3l58-25.9l-0.1-49.2L142.9,139.1
	z M132,127.7l1.9,1.3l-0.1,57.2l-50.9,23.2v-10l46.4-23.9h0.1v-0.1l0,0l0,0l-0.1-45L132,127.7z M122.5,116.9l1.7,1.6v53.1L83,193
	v-11.1l37.7-22.4l0,0v-0.1l0,0l0,0l-0.1-40.6L122.5,116.9z M112.2,145.6L112.2,145.6L112.2,145.6L112.2,145.6L112.2,145.6v-37.9
	l1.6-1.6l1.8,1.7v47.9l-32.7,19.9v-10.2L112.2,145.6z M52.3,107.6l-0.1,37.9l0,0l0,0v0.1l0,0l29.2,19.7v10.2l-32.5-19.8v-47.9
	l1.8-1.7L52.3,107.6z M43.9,118.9l-0.1,40.6l0,0l0,0v0.1l0,0l37.6,22.3V193l-41.1-21.3v-53.1L42,117L43.9,118.9z M35.2,175.4
	L35.2,175.4L35.2,175.4L35.2,175.4L35.2,175.4l46.3,23.8v10.1l-50.8-23.1L30.6,129l1.9-1.3l2.7,2.8V175.4z M23.6,190.4L23.6,190.4
	l57.9,25.9v14.3l-60.8-27.7l-0.1-63l1-0.7l2.1,2.1L23.6,190.4z"/>
<path class="st1" d="M106.4,104.5V66.3h5.6v32L106.4,104.5L106.4,104.5z M106.4,50.8l-3.6-3v82.4h-0.1l-18.1,17.4h-5.5l-18.2-17.8
	V47.9l-3.6,2.9v53.7l-5.6-6.3v-50L66.4,36v91.9l12.7,11.8v-25l-9.1-8.9V25.7h5.6v79.2l3.6,2.8V0h5.6v107.4l3.6-2.8V25.7H94v80.8
	l-9.1,8v25l12.7-11.8V35.9l14.7,12.4v12.5h-5.6v-10L106.4,50.8z"/>
<path class="st1" d="M146.6,217.6l-49.8,24.3H68.5l-50.1-24.3H0V240v14.1h21.2l43.9,21.8h34.8l43.9-21.8H165V240v-22.4H146.6z
	 M34.9165,249.9004H17.4946v-22.9063H34.479v3.875H22.1196v5.0781h11.5v3.8594h-11.5v6.2344h12.7969V249.9004z M95.9912,270.7998
	h-4.2969v-18.0313l-4.5469,18.0313h-4.4536l-4.5313-18.0313v18.0313h-4.2969v-22.9063h6.9219l4.1567,15.625l4.1094-15.625h6.9375
	V270.7998z"/>
<g>
	<path class="st2" d="M127.7559,242.4473l4.5-0.4375c0.2705,1.5107,0.8203,2.6201,1.6484,3.3281
		c0.8281,0.709,1.9453,1.0625,3.3516,1.0625c1.4893,0,2.6123-0.3145,3.3672-0.9453c0.7549-0.6299,1.1328-1.3672,1.1328-2.2109
		c0-0.541-0.1592-1.002-0.4766-1.3828c-0.3174-0.3799-0.8721-0.7109-1.6641-0.9922c-0.542-0.1875-1.7764-0.5205-3.7031-1
		c-2.4795-0.6143-4.2188-1.3691-5.2188-2.2656c-1.4063-1.2598-2.1094-2.7969-2.1094-4.6094c0-1.166,0.3311-2.2578,0.9922-3.2734
		s1.6143-1.7891,2.8594-2.3203s2.7471-0.7969,4.5078-0.7969c2.875,0,5.0391,0.6309,6.4922,1.8906
		c1.4531,1.2607,2.2158,2.9434,2.2891,5.0469l-4.625,0.2031c-0.1982-1.1768-0.6221-2.0234-1.2734-2.5391
		s-1.6279-0.7734-2.9297-0.7734c-1.3438,0-2.3955,0.2764-3.1563,0.8281c-0.4893,0.3545-0.7344,0.8281-0.7344,1.4219
		c0,0.542,0.2295,1.0059,0.6875,1.3906c0.583,0.4902,2,1,4.25,1.5313s3.9141,1.0811,4.9922,1.6484
		c1.0781,0.5684,1.9219,1.3438,2.5313,2.3281s0.9141,2.2012,0.9141,3.6484c0,1.3125-0.3643,2.542-1.0938,3.6875
		c-0.7295,1.1465-1.7607,1.998-3.0938,2.5547s-2.9951,0.8359-4.9844,0.8359c-2.8955,0-5.1201-0.6689-6.6719-2.0078
		C128.9854,246.9609,128.0576,245.0098,127.7559,242.4473z"/>
</g>
</svg>
