<?xml version="1.0" encoding="utf-8"?>
<!-- Generator: Adobe Illustrator 23.0.1, SVG Export Plug-In . SVG Version: 6.00 Build 0)  -->
<svg version="1.1" id="Layer_1" xmlns="http://www.w3.org/2000/svg" xmlns:xlink="http://www.w3.org/1999/xlink" x="0px" y="0px"
	 viewBox="0 0 566.9291 290.1741" style="enable-background:new 0 0 566.9291 290.1741;" xml:space="preserve">
<style type="text/css">
	.st0{fill:#fafafa;}
	.st1{fill:#DF3B28;}
</style>
<g id="XMLID_1_">
	<g id="XMLID_16_">
		<g id="XMLID_17_">
			<g id="XMLID_29_">
				<path id="XMLID_40_" class="st0" d="M306.1326,143.0097c-2.7281-2.411-6.2022-3.5829-10.6197-3.5829h-18.1334v41.3788h6.2496
					v-15.0982h11.8838c4.4435,0,7.9198-1.1935,10.6265-3.6483c2.6541-2.4014,3.9999-5.5946,3.9999-9.4918
					C310.1393,148.6937,308.7961,145.4824,306.1326,143.0097z M295.5129,159.9337h-11.8838v-14.7332h11.8838
					c5.125,0,8.4367,2.8916,8.4367,7.3669C303.9496,157.0421,300.6379,159.9337,295.5129,159.9337z"/>
				<path id="XMLID_39_" class="st0" d="M340.6844,162.6128c0,3.9297-1.035,7.0966-3.0759,9.4129
					c-2.0632,2.3426-4.6919,3.4814-8.0358,3.4814c-3.4241,0-6.0913-1.1389-8.1546-3.4814
					c-2.0804-2.3616-3.1352-5.5285-3.1352-9.4129v-23.1861h-6.2491v23.1861c0,5.6058,1.6296,10.2035,4.834,13.6544
					c3.154,3.5241,7.4283,5.3109,12.7048,5.3109c5.237,0,9.4915-1.7868,12.6408-5.3059c3.1321-3.439,4.72-8.0348,4.72-13.6594
					v-23.1861h-6.2491V162.6128z"/>
				<polygon id="XMLID_38_" class="st0" points="380.6888,169.9979 355.7998,139.4268 350.6118,139.4268 350.6118,180.8056 
					356.8614,180.8056 356.8614,150.5721 381.753,180.8056 386.9384,180.8056 386.9384,139.4268 380.6888,139.4268 				"/>
				<path id="XMLID_37_" class="st0" d="M420.4047,139.4268h-21.1691v5.7737h14.9196v20.3247c0,2.9991-0.8502,5.4163-2.5984,7.3908
					c-1.6858,1.9037-3.8677,2.8291-6.6703,2.8291c-5.1188,0-8.5862-3.3229-9.2744-8.8887l-0.1057-0.852l-5.9966,1.3594
					l0.1046,0.7117c1.2078,8.2025,7.2029,13.5027,15.272,13.5027c4.5982,0,8.3863-1.5205,11.2658-4.525
					c2.8218-3.0095,4.2524-6.8879,4.2524-11.528V139.4268z"/>
				<path id="XMLID_34_" class="st0" d="M437.4922,139.4268l-18.5275,41.3788h6.7572l4.4581-10.1048h19.9707l4.4581,10.1048h6.7572
					l-18.5275-41.3788H437.4922z M447.6262,164.927h-14.9174l7.484-16.968L447.6262,164.927z"/>
				<path id="XMLID_30_" class="st0" d="M489.5865,159.5765c2.9374-1.5244,4.9423-4.9639,4.9423-8.9116
					c0-6.827-4.948-11.2382-12.6054-11.2382h-19.0846v41.3788h19.8572c8.1056,0,13.1406-4.443,13.1406-11.5948
					C495.8367,164.6253,493.4084,161.0093,489.5865,159.5765z M481.8641,157.2587h-12.7757v-12.2363h12.419
					c4.3238,0,7.0097,2.2533,7.0097,5.8805C488.5172,154.7639,485.9057,157.2587,481.8641,157.2587z M469.0884,162.6165h13.251
					c4.3665,0,7.1883,2.4251,7.1883,6.1783c0,3.957-2.777,6.4151-7.2477,6.4151h-13.1916V162.6165z"/>
			</g>
			<g id="XMLID_18_">
				<path id="XMLID_28_" class="st0" d="M311.1176,211.2325c-1.9638,6.1171-6.9592,9.6253-13.7044,9.6253
					c-4.2384,0-7.8495-1.5197-10.739-4.5227c-2.9707-3.0275-4.4144-6.6216-4.4144-10.9878c0-4.3446,1.4854-8.0614,4.4196-11.0521
					c2.8463-2.9579,6.4573-4.4579,10.7338-4.4579c6.7338,0,11.8562,3.5728,13.7018,9.5574l0.2249,0.7297l6.0138-1.741
					l-0.2374-0.7578c-1.2943-4.1281-3.7308-7.502-7.2549-10.0364c-3.5632-2.4576-7.7516-3.7037-12.4482-3.7037
					c-5.9726,0-11.0971,2.0963-15.2309,6.2309c-4.1348,4.1343-6.2314,9.2588-6.2314,15.2309c0,5.9721,2.0966,11.0966,6.2314,15.2314
					c4.1342,4.1345,9.2588,6.2308,15.2309,6.2308c4.7887,0,8.9813-1.269,12.4606-3.7719c3.522-2.5331,5.9596-5.9898,7.2451-10.2746
					l0.2368-0.7893l-6.0184-1.4255L311.1176,211.2325z"/>
				<path id="XMLID_25_" class="st0" d="M339.9738,183.8855c-5.9331,0-11.0378,2.0963-15.1716,6.2309
					c-4.1348,4.1343-6.2314,9.2588-6.2314,15.2309c0,5.9721,2.0965,11.0966,6.2314,15.2314
					c4.1343,4.1345,9.239,6.2308,15.1716,6.2308c5.9325,0,11.0372-2.0963,15.1715-6.2308c4.0952-4.0955,6.172-9.22,6.172-15.2314
					c0-6.0117-2.0768-11.1359-6.172-15.2309C351.0116,185.9818,345.9069,183.8855,339.9738,183.8855z M350.6487,216.3405
					c-2.8864,2.9993-6.3782,4.4574-10.6749,4.4574c-4.2764,0-7.888-1.4996-10.7395-4.4625
					c-2.8895-2.9468-4.3546-6.6437-4.3546-10.9881c0-4.3269,1.4666-8.0455,4.3598-11.0521
					c2.8468-2.9579,6.4583-4.4579,10.7343-4.4579c4.2962,0,7.7881,1.4583,10.6749,4.4579
					c2.8931,3.0066,4.3597,6.7252,4.3597,11.0521c0,4.3444-1.4651,8.0413-4.3545,10.9881L350.6487,216.3405z"/>
				<polygon id="XMLID_24_" class="st0" points="369.7593,184.6582 363.5097,184.6582 363.5097,226.037 392.5846,226.037 
					392.5846,220.2039 369.7593,220.2039 				"/>
				<polygon id="XMLID_23_" class="st0" points="401.026,184.6582 394.7765,184.6582 394.7765,226.037 423.8513,226.037 
					423.8513,220.2039 401.026,220.2039 				"/>
				<polygon id="XMLID_22_" class="st0" points="432.2932,208.1451 454.8806,208.1451 454.8806,202.3714 432.2932,202.3714 
					432.2932,190.4319 456.6044,190.4319 456.6044,184.6582 426.0436,184.6582 426.0436,226.037 456.6638,226.037 
					456.6638,220.2039 432.2932,220.2039 				"/>
				<path id="XMLID_21_" class="st0" d="M499.9158,202.6093h-23.525v5.8331h17.48c-0.569,3.5431-2.0513,6.3964-4.5138,8.7017
					c-2.6317,2.4641-5.9732,3.7136-9.9304,3.7136c-4.2603,0-7.9135-1.5215-10.8634-4.5279
					c-3.0066-3.0069-4.4685-6.5992-4.4685-10.9826c0-4.3269,1.4666-8.0455,4.3597-11.0521
					c2.8468-2.9579,6.4584-4.4579,10.7343-4.4579c6.3303,0,11.2549,2.9075,13.8669,8.1866l0.3051,0.6167l5.6311-1.9825
					l-0.2978-0.7508c-2.9415-7.4153-10.4156-12.0218-19.5052-12.0218c-5.933,0-11.0378,2.0963-15.1715,6.2309
					c-4.1348,4.1343-6.2314,9.2588-6.2314,15.2309c0,5.9721,2.0966,11.0966,6.2314,15.2314
					c4.1343,4.1345,9.2791,6.2308,15.2903,6.2308c6.0596,0,11.0898-2.0822,14.9466-6.1845
					c3.8501-4.033,5.8024-9.1531,5.8024-15.2179c0-0.8543,0-1.5293-0.0641-2.1067L499.9158,202.6093z"/>
				<polygon id="XMLID_20_" class="st0" points="508.4983,208.1451 531.0856,208.1451 531.0856,202.3714 508.4983,202.3714 
					508.4983,190.4319 532.8094,190.4319 532.8094,184.6582 502.2487,184.6582 502.2487,226.037 532.8688,226.037 
					532.8688,220.2039 508.4983,220.2039 				"/>
				<path id="XMLID_19_" class="st0" d="M556.2782,203.1037l-8.7017-1.9664c-3.7673-0.731-5.3745-2.2806-5.3745-5.1815
					c0-3.8375,3.3185-6.4156,8.2582-6.4156c5.0777,0,8.748,2.7858,9.579,7.2702l0.1473,0.7958l6.2261-1.4185l-0.1531-0.7448
					c-1.4639-7.1289-7.4725-11.5574-15.6807-11.5574c-4.3993,0-8.0035,1.1186-10.7072,3.3193
					c-2.7974,2.2252-4.2161,5.2094-4.2161,8.8701c0,5.7329,3.4237,9.4075,10.1804,10.923l8.974,1.9615
					c4.3889,0.9689,5.8701,2.3524,5.8701,5.4827c0,4.1038-3.4149,6.6531-8.9121,6.6531c-5.9981,0-10.0668-3.0222-10.8837-8.0845
					l-0.1292-0.8l-6.4339,1.318l0.0922,0.7156c0.5076,3.9331,2.3788,7.035,5.5472,9.2094c3.0936,2.2267,6.926,3.3559,11.3914,3.3559
					c4.6575,0,8.4404-1.1371,11.244-3.3799c2.8754-2.2999,4.3331-5.4038,4.3331-9.2255
					C566.9291,208.3393,563.3426,204.6038,556.2782,203.1037z"/>
			</g>
		</g>
	</g>
	<g id="XMLID_13_">
		<path id="XMLID_14_" class="st1" d="M67.861,63.1553l0.0213-0.0107l9.2549-5.4378l0.0587-0.032v105.7765l6.1734,3.5666
			l24.7102,14.2663l0.2666,0.1546l2.8149,1.626l3.0868-1.7806l0.0053-0.0053l24.7048-14.261l5.1553-2.9749l1.0182-0.5918V57.6748
			l0.048,0.0267l9.2655,5.4431l0.016,0.0107v54.1917l6.1576-3.556V59.626l-6.1576-3.6199l-9.2816-5.4538l-0.048-0.032
			l-6.1736-3.6306v112.979l-24.7048,14.2663v0.0053h-0.0053v-14.4582l0.0053-0.0053l9.2816-5.3526l6.1575-3.5612V41.4573
			l-2.8255-1.6634l-3.332-1.9566V37.832l-0.016-0.0053v109.3592l-9.2656,5.3471v0.0053h-0.0053V1.8127L111.161,0l-3.0815,1.8127
			v150.7256l-0.0107-0.0053l-9.2602-5.3471V37.8266l-0.0214,0.0107l-6.1522,3.6146V150.763l6.1736,3.5666l9.2602,5.3472
			l0.0107,0.0053v14.4582l-0.0107-0.0053l-24.6995-14.2663V46.8897l-0.0479,0.032l-6.1842,3.6306l-9.2762,5.4538l-6.1522,3.6199
			v53.9518l6.1522,3.5559V63.1553z"/>
	</g>
	<path id="XMLID_2_" class="st0" d="M207.0055,148.124l-0.1119,0.064v-18.0195l-15.3539,8.8552l-0.0853,0.0533v-18.1101
		l-6.1682,3.5613l-9.2764,5.3525v-17.8489l-15.3911,8.8765l-6.1736,3.5612v48.0129l-0.0319,0.016l-40.1654,23.1747l-3.0868,1.7806
		l-3.0815-1.7806l-40.1973-23.1907v-47.9916l-21.5648-12.4377v17.8276l-0.1013-0.0586l-9.175-5.2939l-6.1681-3.5613v18.1101
		l-0.1228-0.0693l-9.1483-5.2832l-6.1682-3.556v18.0195l-0.144-0.0853l-9.1216-5.262L0,139.2849v86.7121l6.1682,3.556
		l101.8847,58.8245l0.0267,0.016l3.0761,1.7754l0.0053,0.0053l3.0868-1.7807l11.2648-6.504l90.6466-52.3364l6.1682-3.556v-86.7121
		L207.0055,148.124z M191.4544,146.2208l0.0853-0.048v-0.0053l9.1857-5.2938v69.1617l-86.4775,49.8201v-14.2236l77.2066-44.6702
		V146.2208z M176.0098,137.0192l0.0641-0.0374l9.2123-5.3098v65.7178l-71.0384,41.093v-14.341l61.762-35.5645V137.0192z
		 M154.4132,179.6421l6.1788-3.5612l0.0267-0.016V128.052l9.223-5.3205v62.2632l-10.8064,6.2215l-44.7875,25.7871v-14.1864
		L154.4132,179.6421z M108.0796,281.2497l-0.0267-0.016L6.1682,222.4518v-72.4671l9.2656,5.3418v58.2914l6.1682,3.5559
		l86.4508,49.8042l0.0267,0.016V281.2497z M108.0796,259.8554l-0.0267-0.0159l-86.4508-49.8042v-69.1617l9.2711,5.3472v54.7461
		l6.1681,3.5666l71.0117,41.0822l0.0267,0.016V259.8554z M108.0796,238.4827l-0.0267-0.016l-71.0117-41.077V131.672l9.2762,5.3472
		v51.5581l6.1682,3.5506l55.5672,31.9979l0.0267,0.0159V238.4827z M108.0796,217.0033l-0.0267-0.016l-55.5672-31.9926v-62.2632
		l9.223,5.3205v48.0129l6.1736,3.5612l40.1706,23.1748l0.0267,0.0159V217.0033z M114.2478,281.2497V266.994l56.159-32.3551
		l30.3185-17.4651l6.1682-3.5559v-58.2914l0.1119-0.064l9.1537-5.2778v72.4671l-46.6588,26.9226L114.2478,281.2497z"/>
</g>
</svg>
